<svg width="220" height="37" viewBox="0 0 220 37" fill="none" xmlns="http://www.w3.org/2000/svg">
<g clip-path="url(#clip0_1148_3)">
<mask id="mask0_1148_3" style="mask-type:luminance" maskUnits="userSpaceOnUse" x="0" y="0" width="220" height="37">
<path d="M220 0H0V37H220V0Z" fill="white"/>
</mask>
<g mask="url(#mask0_1148_3)">
<path d="M53.8219 31.9301V7.68564H60.5594V18.6971L68.4585 7.68243H76.3917L67.1627 19.5077L77.1925 31.9301H68.6972L60.5572 21.0489V31.9301H53.8219Z" fill="#333333"/>
<path d="M81.071 31.93V7.68561H87.946V31.93H81.071Z" fill="#333333"/>
<path d="M120.826 19.8559C120.844 21.5319 120.51 23.194 119.844 24.7404C119.178 26.2868 118.194 27.6851 116.953 28.8498C115.693 30.0333 114.21 30.97 112.585 31.6086C109.305 32.9021 105.635 32.9021 102.355 31.6086C100.748 30.9753 99.2862 30.0375 98.0562 28.8498C96.802 27.6904 95.8068 26.293 95.1324 24.7443C93.8017 21.6119 93.8017 18.0956 95.1324 14.9632C95.8087 13.4169 96.8037 12.0212 98.0562 10.862C99.2898 9.67463 100.754 8.73756 102.365 8.10536C105.652 6.81319 109.328 6.81319 112.616 8.10536C114.236 8.73771 115.712 9.67449 116.959 10.862C118.195 12.0304 119.174 13.4295 119.839 14.9751C120.504 16.5208 120.84 18.181 120.826 19.8559ZM107.485 26.9797C108.371 26.9995 109.25 26.8286 110.06 26.4792C110.869 26.1298 111.589 25.6106 112.167 24.959C113.426 23.5465 114.087 21.7237 114.018 19.857C114.082 17.9902 113.411 16.17 112.142 14.7667C111.556 14.127 110.837 13.6148 110.032 13.2639C109.228 12.913 108.356 12.7312 107.474 12.7305C106.593 12.7298 105.721 12.9102 104.916 13.2598C104.111 13.6095 103.391 14.1204 102.804 14.7592C101.547 16.1691 100.886 17.9882 100.952 19.8516C100.876 21.7204 101.528 23.5486 102.777 24.9718C103.36 25.6247 104.084 26.1436 104.898 26.4909C105.713 26.8382 106.596 27.0051 107.485 26.9797Z" fill="#333333"/>
<path d="M139.656 16.812L147.316 8.23138H152.475V31.3715H146.535V16.9284L140.098 24.1825H139.206L132.769 16.9284V31.3715H126.829V8.23138H131.982L139.656 16.812Z" fill="#333333"/>
<path d="M159.665 31.93V7.68561H166.54V31.93H159.665Z" fill="#333333"/>
<path d="M173.778 31.9301V7.68566H180.894C182.845 7.62309 184.798 7.74795 186.724 8.0584C187.749 8.27507 188.716 8.70022 189.56 9.30587C190.459 9.96923 191.173 10.8405 191.636 11.8403C192.125 12.9086 192.371 14.0667 192.357 15.2356C192.433 16.8746 191.931 18.4898 190.934 19.8143C189.88 21.0505 188.408 21.8814 186.78 22.1576L193.586 31.929H185.892L180.16 22.4395V31.929L173.778 31.9301ZM180.158 19.1457H181.42C182.544 19.2308 183.668 18.976 184.637 18.4162C184.986 18.1448 185.26 17.7945 185.437 17.396C185.614 16.9975 185.688 16.5631 185.651 16.1306C185.702 15.6573 185.643 15.179 185.48 14.7304C185.316 14.2819 185.051 13.8743 184.705 13.5374C183.766 12.941 182.647 12.6697 181.53 12.7674H180.16L180.158 19.1457Z" fill="#333333"/>
<path d="M197.771 7.68243H204.56V19.4757C204.54 20.7232 204.586 21.9709 204.698 23.2138C204.762 23.863 204.916 24.5008 205.157 25.1096C205.418 25.7285 205.904 26.2328 206.523 26.5269C207.267 26.8487 208.073 27.015 208.888 27.015C209.703 27.015 210.508 26.8487 211.253 26.5269C211.871 26.2293 212.358 25.7264 212.627 25.1096C212.87 24.5011 213.026 23.8633 213.091 23.2138C213.202 21.9708 213.247 20.7232 213.226 19.4757V7.68243H219.998V20.4989C220.061 22.4733 219.896 24.4484 219.505 26.387C219.211 27.5774 218.638 28.686 217.831 29.6263C216.893 30.6636 215.677 31.4285 214.319 31.8361C210.77 32.8194 207.01 32.8194 203.462 31.8361C202.103 31.4242 200.886 30.6602 199.942 29.6263C199.141 28.6829 198.572 27.5752 198.277 26.387C197.877 24.4496 197.708 22.4738 197.775 20.4989V7.68243H197.771Z" fill="#333333"/>
<path d="M34.9833 15.8523C35.3313 14.6304 35.3833 13.3469 35.1353 12.1023C34.8873 10.8576 34.3461 9.6856 33.554 8.67786C32.7618 7.67011 31.7403 6.85401 30.5692 6.29341C29.3982 5.7328 28.1094 5.4429 26.8037 5.44639C26.653 5.44639 26.5056 5.45921 26.3549 5.46668C25.7697 3.86559 24.688 2.47979 23.2587 1.49975C21.8294 0.51971 20.1226 -0.00646973 18.3728 -0.00646973C16.623 -0.00646973 14.9161 0.51971 13.4868 1.49975C12.0575 2.47979 10.9759 3.86559 10.3906 5.46668C10.2399 5.45921 10.0925 5.44639 9.93963 5.44639C8.61887 5.44511 7.31606 5.7435 6.13514 6.31779C4.95421 6.89207 3.92783 7.72634 3.13787 8.75407C2.34791 9.7818 1.81622 10.9745 1.58521 12.2372C1.3542 13.4998 1.43026 14.7973 1.80733 16.0264C0.627819 17.4859 -0.0091681 19.2895 -0.000274327 21.1447C0.00861945 22.9999 0.662872 24.7977 1.85633 26.2465C3.04979 27.6953 4.71242 28.71 6.57447 29.126C8.43652 29.5421 10.3887 29.335 12.1143 28.5384V32.5051L9.60193 35.1506C8.61193 36.1877 8.96943 36.7815 10.3873 36.4697L14.5046 35.5608L14.4683 35.6462C13.9084 36.9524 14.4529 37.3903 15.6783 36.6224L18.3766 34.9263L21.0727 36.6224C22.2959 37.3903 22.8327 36.9524 22.2827 35.6462L22.2442 35.5608L26.3615 36.4697C27.7827 36.7815 28.1347 36.1877 27.1491 35.1506L24.6367 32.5051V28.3045C26.3564 29.1028 28.3031 29.3145 30.1621 28.9054C32.021 28.4963 33.6835 27.4904 34.8808 26.0503C36.078 24.6102 36.7399 22.8201 36.7595 20.9695C36.7791 19.1189 36.1553 17.316 34.9888 15.8523H34.9833Z" fill="#333333"/>
</g>
</g>
<defs>
<clipPath id="clip0_1148_3">
<rect width="220" height="37" fill="white"/>
</clipPath>
</defs>
</svg>
